<?xml version="1.0" encoding="UTF-8"?> <svg xmlns="http://www.w3.org/2000/svg" width="190.748" height="436.017" viewBox="0 0 190.748 436.017"><defs><style>.a{fill:#a0616a;}.b{fill:#3f3d56;}.c{fill:#2f2e41;}.d{opacity:0.1;}.e{fill:#f2f2f2;}.f{fill:#aac6d4;}</style></defs><g transform="translate(-160.37 -493.89)"><path class="a" d="M286.152,604.07v31.263l16.054,18.589s6.759-2.535,6.759-19.433l2.535-24.5Z" transform="translate(-82.053 32.106)"></path><path class="a" d="M306.586,636.728s-26.193-17.744-27.038-23.658-38.022-32.952-32.108-16.054,24.5,24.5,24.5,24.5,14.364,38.867,27.038,38.022S311.656,642.643,306.586,636.728Z" transform="translate(-86.434 30.711)"></path><path class="b" d="M212.883,771.64l2.535,15.209-13.519-3.38V771.64Z" transform="translate(22.478 85.909)"></path><path class="c" d="M315.138,811.485s-15.625-9.257-16.262-5.051-7.4,20.26-10.776,21.95-7.6,20.278,0,19.433c5.89-.654,27.492-11.953,36.934-17.015a5.159,5.159,0,0,0,2.218-6.742,10.647,10.647,0,0,1-1.131-3.281C326.121,819.089,315.138,811.485,315.138,811.485Z" transform="translate(-82.31 54.514)"></path><path class="c" d="M324.471,657.884s-61.68,28.728-55.766,50.7,27.883,114.911,27.883,114.911,24.5,5.915,26.193,0S306.727,725.479,308.417,722.1s32.953-25.348,32.953-25.348l64.215-27.038-27.038-25.348Z" transform="translate(-84.04 36.592)"></path><path class="b" d="M175.291,776.2l-7.6,19.434,13.519,5.914,8.449-15.21Z" transform="translate(18.669 86.417)"></path><path class="a" d="M318.23,534.348s7.6,10.139,1.69,15.209-1.69,23.658-1.69,23.658l7.6,21.123,30.418-5.915V553.782l-1.69-16.9s-15.209-14.364-16.9-25.348S318.23,534.348,318.23,534.348Z" transform="translate(-78.644 21.56)"></path><path class="d" d="M318.23,534.348s7.6,10.139,1.69,15.209-1.69,23.658-1.69,23.658l7.6,21.123,30.418-5.915V553.782l-1.69-16.9s-15.209-14.364-16.9-25.348S318.23,534.348,318.23,534.348Z" transform="translate(-78.644 21.56)"></path><path class="c" d="M373.943,650.448s-39.712,43.937-39.712,45.626-21.123,36.332-21.123,36.332l-41.4,92.1s16.054,21.968,22.813,20.278,54.921-99.7,54.921-99.7,8.449-21.968,31.263-27.038,40.557-22.813,32.107-43.092S373.943,650.448,373.943,650.448Z" transform="translate(-83.661 37.27)"></path><circle class="a" cx="27.038" cy="27.038" r="27.038" transform="translate(212.549 507.747)"></circle><path class="e" d="M319.352,552.879s3.38,19.433,6.759,21.123,5.914,7.6,13.519-.845,14.364-25.348,14.364-25.348l26.193,32.107,2.535,88.718s-29.573-7.6-38.867,0-29.573,6.76-29.573,6.76l4.225-16.9-3.38-28.728.845-26.193.845-18.589Z" transform="translate(-78.921 25.843)"></path><path class="b" d="M324.953,539.573s-11.426,5.773-12.271,9.152-16.054,10.139-16.054,10.139-5.915,5.915-5.915,9.294,20.278,42.247,20.278,42.247,4.225,26.193,2.535,31.263,3.38,24.5,3.38,24.5L306.768,678h9.294s10.139-5.07,10.139-7.6-1.69-20.278-2.535-27.883-.845-34.642.845-43.937.845-33.8.845-39.712S324.953,539.573,324.953,539.573Z" transform="translate(-81.545 24.926)"></path><path class="b" d="M346.468,528.029s3.8.859,14.786,4.239,27.883,8.449,33.8,15.209a104.737,104.737,0,0,1,10.984,16.054l-3.38,60.835s6.759,12.674,5.915,19.433-7.6,7.6-2.535,21.968,15.209,27.038,5.914,28.728-33.8-4.225-44.781-.845-23.658-12.674-23.658-12.674,16.9,1.69,14.364-5.07-30.418-82.8-24.5-99.7S346.468,528.029,346.468,528.029Z" transform="translate(-76.887 23.64)"></path><path class="b" d="M295.846,561.494l-4.225,3.38s-11.829,42.247-8.449,46.471,30.418,13.519,32.108,7.6S295.846,561.494,295.846,561.494Z" transform="translate(-82.452 27.366)"></path><path class="a" d="M409.493,588.1s12.674,36.332,12.674,46.471-1.69,69.285-1.69,69.285-.845,25.348-18.589,15.209,0-16.9,0-16.9-.845-66.75-7.6-76.044-9.294-22.813-9.294-22.813Z" transform="translate(-71.049 30.329)"></path><path class="c" d="M285.327,824.912s-12.674-6.759-15.209-1.69-16.054,32.953-14.364,36.332,10.984,16.9,21.968,13.519,11.829-21.123,11.829-21.123l.845-20.278Z" transform="translate(-85.453 56.295)"></path><path class="c" d="M317.371,510.4c1.862.877,4.072,1.4,5.242,3.094.867,1.255.953,2.885,1.586,4.273a6.043,6.043,0,0,0,7.774,2.843,6.7,6.7,0,0,1,2.734-4.152,3.982,3.982,0,0,1,4.727.26c1.742,1.66,1.125,4.556,1.938,6.82a14.4,14.4,0,0,0,3.1,4.246c1.849,2.134,3.323,4.636,5.55,6.372s5.6,2.488,7.817.734c1.86-1.475,2.246-4.2,1.794-6.528s-1.572-4.477-2.2-6.766c-2.053-7.437,1.22-15.376.207-23.025-1.3-9.8-9.627-17.541-18.925-20.9a22.14,22.14,0,0,0-12.218-1.294c-4.252.949-7.884,3.656-11.957,5.2-4.355,1.656-9.09,1.945-13.647,2.913S291.64,487.334,289,491.17c-1.845,2.675-2.479,6-4.007,8.865a15.9,15.9,0,0,1-8.056,7.217l4.817-.275a14.2,14.2,0,0,1-3.838,5.6,10.3,10.3,0,0,0,6.669-.882,7.249,7.249,0,0,1-2.486,5.2c3.707-.112,7.616-.283,10.748-2.268,1.534-.973,2.785-2.327,4.229-3.43,3.078-2.35,6.9-3.465,10.618-4.534,1.954-.561,4.307-1.341,6.074-.084C315.235,507.627,315.467,509.506,317.371,510.4Z" transform="translate(-83.079 17.852)"></path><path class="b" d="M388.878,550.85l12.674,10.139,16.9,38.867s-23.658,18.589-29.573,16.054-16.054-47.316-16.054-47.316Z" transform="translate(-72.403 26.181)"></path><path class="f" d="M276.441,586.314l-.212,1.553-1.309,9.584-2.144,15.694-.537,3.929a1.252,1.252,0,0,1-1.24,1.083H256.7a1.252,1.252,0,0,1-1.24-1.08l-.546-3.932-2.18-15.694-1.332-9.591-.214-1.543a1.252,1.252,0,0,1,1.24-1.424H275.2a1.253,1.253,0,0,1,1.24,1.422Z" transform="translate(-85.946 29.971)"></path><rect class="c" width="22.33" height="4.158" rx="1.127" transform="translate(166.741 610.706)"></rect><path class="c" d="M278.528,587.18a132.52,132.52,0,0,1-28.759,0,1.252,1.252,0,0,1-1.252-1.252v-1.654a1.252,1.252,0,0,1,1.252-1.252,117.834,117.834,0,0,0,28.759,0,1.252,1.252,0,0,1,1.252,1.252v1.654a1.252,1.252,0,0,1-1.252,1.252Z" transform="translate(-86.243 29.763)"></path><path class="c" d="M273.351,611.259H254.1a.726.726,0,0,1-.717-.612l-2.08-13.1a.726.726,0,0,1,.717-.84H275.57a.726.726,0,0,1,.716.847l-2.218,13.1A.726.726,0,0,1,273.351,611.259Z" transform="translate(-85.933 31.286)"></path></g></svg> 